[
  {
    "time": 6.596834062499999,
    "note": 75,
    "velocity": 108
  },
  {
    "time": 7.036394062499999,
    "note": 75,
    "velocity": 104
  },
  {
    "time": 7.263042187499999,
    "note": 77,
    "velocity": 96
  },
  {
    "time": 7.9223821874999985,
    "note": 75,
    "velocity": 108
  },
  {
    "time": 8.581722187499999,
    "note": 80,
    "velocity": 122
  },
  {
    "time": 9.237628124999999,
    "note": 79,
    "velocity": 121
  },
  {
    "time": 10.5597421875,
    "note": 75,
    "velocity": 112
  },
  {
    "time": 10.995868125,
    "note": 75,
    "velocity": 101
  },
  {
    "time": 11.215648125,
    "note": 77,
    "velocity": 108
  },
  {
    "time": 11.8784221875,
    "note": 75,
    "velocity": 112
  },
  {
    "time": 12.5377621875,
    "note": 82,
    "velocity": 127
  },
  {
    "time": 13.193668124999999,
    "note": 80,
    "velocity": 127
  },
  {
    "time": 14.515782187499997,
    "note": 75,
    "velocity": 108
  },
  {
    "time": 14.951908124999997,
    "note": 75,
    "velocity": 97
  },
  {
    "time": 15.175122187499998,
    "note": 87,
    "velocity": 108
  },
  {
    "time": 15.834462187499996,
    "note": 84,
    "velocity": 112
  },
  {
    "time": 16.4938021875,
    "note": 80,
    "velocity": 116
  },
  {
    "time": 16.929928125,
    "note": 80,
    "velocity": 108
  },
  {
    "time": 17.149708125,
    "note": 79,
    "velocity": 116
  },
  {
    "time": 17.809048125,
    "note": 77,
    "velocity": 112
  },
  {
    "time": 18.471822187500003,
    "note": 85,
    "velocity": 116
  },
  {
    "time": 18.907948125000004,
    "note": 85,
    "velocity": 108
  },
  {
    "time": 19.127728125000004,
    "note": 84,
    "velocity": 121
  },
  {
    "time": 19.787068125000005,
    "note": 80,
    "velocity": 122
  },
  {
    "time": 20.449842187500007,
    "note": 82,
    "velocity": 122
  },
  {
    "time": 21.105748125000005,
    "note": 80,
    "velocity": 122
  },
  {
    "time": 22.427862187500004,
    "note": 75,
    "velocity": 116
  },
  {
    "time": 22.863988125000002,
    "note": 75,
    "velocity": 116
  },
  {
    "time": 23.0872021875,
    "note": 77,
    "velocity": 96
  },
  {
    "time": 23.743108125000003,
    "note": 75,
    "velocity": 108
  },
  {
    "time": 24.405882187500005,
    "note": 80,
    "velocity": 127
  },
  {
    "time": 25.061788125000003,
    "note": 79,
    "velocity": 112
  },
  {
    "time": 26.383902187500006,
    "note": 75,
    "velocity": 112
  },
  {
    "time": 26.820028125000004,
    "note": 75,
    "velocity": 99
  },
  {
    "time": 27.039808125000004,
    "note": 77,
    "velocity": 116
  },
  {
    "time": 27.699148125,
    "note": 75,
    "velocity": 122
  },
  {
    "time": 28.3619221875,
    "note": 82,
    "velocity": 127
  },
  {
    "time": 29.017828125,
    "note": 80,
    "velocity": 127
  },
  {
    "time": 30.339942187500004,
    "note": 75,
    "velocity": 112
  },
  {
    "time": 30.776068125000005,
    "note": 75,
    "velocity": 99
  },
  {
    "time": 30.995848125000006,
    "note": 87,
    "velocity": 108
  },
  {
    "time": 30.999282187500004,
    "note": 85,
    "velocity": 65
  },
  {
    "time": 31.6586221875,
    "note": 84,
    "velocity": 103
  },
  {
    "time": 32.3179621875,
    "note": 80,
    "velocity": 116
  },
  {
    "time": 32.754088125,
    "note": 80,
    "velocity": 116
  },
  {
    "time": 32.973868125,
    "note": 79,
    "velocity": 105
  },
  {
    "time": 33.633208125,
    "note": 77,
    "velocity": 116
  },
  {
    "time": 34.2959821875,
    "note": 85,
    "velocity": 116
  },
  {
    "time": 34.732108124999996,
    "note": 85,
    "velocity": 112
  },
  {
    "time": 34.951888124999996,
    "note": 84,
    "velocity": 121
  },
  {
    "time": 35.6146621875,
    "note": 80,
    "velocity": 127
  },
  {
    "time": 36.2740021875,
    "note": 82,
    "velocity": 127
  },
  {
    "time": 36.9333421875,
    "note": 80,
    "velocity": 127
  }
]